Coordinates
version=1
nRows=32
nColumns=12
inDegrees=yes

Units are S.I. units (second, meters, Newtons, ...)
Angles are in degrees

endheader
time	SC_y	SC_z	SC_x	AC_y	AC_z	AC_x	GH_y	GH_z	GH_yy	EL_x	PS_y
       0.0              -28.96          21.12          39.41          36.84           6.39         0.2367          132.3          39.11         -132.1          42.67          133.3
  0.007091              -28.97          21.12          39.41          36.84          6.389         0.2371          132.2          39.11         -132.0          42.67          133.3
   0.01418              -28.97          21.11          39.41          36.84          6.388         0.2376          132.2           39.1         -132.0          42.66          133.3
   0.02127              -28.97          21.11          39.41          36.84          6.387         0.2381          132.1           39.1         -132.0          42.66          133.3
   0.02836              -28.98          21.11          39.41          36.84          6.386         0.2386          132.1          39.09         -131.9          42.65          133.3
   0.03545              -28.98          21.11          39.41          36.84          6.385         0.2391          132.0          39.09         -131.9          42.64          133.3
   0.04255              -28.98           21.1          39.41          36.84          6.384         0.2397          132.0          39.08         -131.8          42.64          133.3
   0.04964              -28.99           21.1          39.41          36.84          6.382         0.2404          131.9          39.08         -131.8          42.63          133.3
   0.05673              -28.99           21.1          39.41          36.85          6.381         0.2411          131.8          39.07         -131.7          42.62          133.3
   0.06382               -29.0          21.09          39.41          36.85          6.379         0.2418          131.8          39.07         -131.7          42.62          133.3
   0.07091               -29.0          21.09          39.41          36.85          6.378         0.2426          131.7          39.06         -131.6          42.61          133.3
     0.078              -29.01          21.08          39.41          36.85          6.376         0.2434          131.6          39.05         -131.6           42.6          133.3
   0.08509              -29.01          21.08          39.42          36.85          6.374         0.2444          131.5          39.04         -131.5          42.59          133.3
   0.09218              -29.02          21.07          39.42          36.86          6.372         0.2453          131.4          39.03         -131.4          42.58          133.3
   0.09927              -29.02          21.07          39.42          36.86           6.37         0.2464          131.3          39.02         -131.3          42.57          133.3
    0.1064              -29.03          21.06          39.42          36.86          6.368         0.2476          131.2          39.01         -131.3          42.55          133.3
    0.1135              -29.04          21.06          39.42          36.87          6.365         0.2488          131.0           39.0         -131.2          42.54          133.3
    0.1205              -29.05          21.05          39.42          36.87          6.362         0.2502          130.9          38.99         -131.1          42.53          133.4
    0.1276              -29.06          21.04          39.42          36.87          6.359         0.2517          130.7          38.97         -131.0          42.51          133.4
    0.1347              -29.07          21.03          39.43          36.88          6.356         0.2534          130.6          38.96         -130.8          42.49          133.4
    0.1418              -29.08          21.03          39.43          36.88          6.352         0.2552          130.4          38.94         -130.7          42.47          133.4
    0.1489              -29.09          21.02          39.43          36.89          6.348         0.2571          130.2          38.93         -130.6          42.45          133.4
     0.156               -29.1          21.01          39.43          36.89          6.343         0.2593          129.9          38.91         -130.4          42.43          133.4
    0.1631              -29.12          20.99          39.44           36.9          6.339         0.2618          129.7          38.88         -130.2           42.4          133.4
    0.1702              -29.13          20.98          39.44           36.9          6.333         0.2645          129.4          38.86         -130.0          42.37          133.4
    0.1773              -29.15          20.96          39.44          36.91          6.327         0.2675          129.1          38.83         -129.8          42.34          133.5
    0.1844              -29.17          20.95          39.45          36.92           6.32         0.2709          128.8           38.8         -129.6          42.31          133.5
    0.1915               -29.2          20.93          39.45          36.93          6.312         0.2747          128.4          38.77         -129.3          42.27          133.5
    0.1985              -29.22          20.91          39.46          36.94          6.303          0.279          127.9          38.73         -129.0          42.22          133.5
    0.2056              -29.25          20.88          39.46          36.95          6.293         0.2838          127.4          38.68         -128.6          42.17          133.5
    0.2127              -29.29          20.86          39.47          36.97          6.282         0.2894          126.9          38.63         -128.2          42.11          133.6
    0.2198              -29.32          20.82          39.48          36.98          6.269         0.2958          126.2          38.57         -127.8          42.04          133.6
